<svg width="181" height="342" viewBox="0 0 181 342" fill="none" xmlns="http://www.w3.org/2000/svg">
<g filter="url(#filter0_f_7_8572)">
<g filter="url(#filter1_d_7_8572)">
<path d="M47.4003 199.055L47.4003 63C47.4003 53.7174 51.0878 44.815 57.6516 38.2513C64.2153 31.6875 73.1177 28 82.4003 28C91.6829 28 100.585 31.6875 107.149 38.2513C113.713 44.815 117.4 53.7174 117.4 63L117.4 201.97C126.477 209.088 133.31 218.672 137.08 229.573C140.851 240.475 141.4 252.232 138.662 263.437C135.924 274.642 130.014 284.821 121.64 292.755C113.267 300.688 102.784 306.04 91.4473 308.17C87.3326 309.261 83.0545 309.6 78.8193 309.17C66.0473 308.837 53.7148 304.437 43.6172 296.609C33.5196 288.781 26.1841 277.935 22.6786 265.649C19.173 253.363 19.6804 240.278 24.1269 228.301C28.5734 216.323 36.7269 206.077 47.4003 199.055Z" fill="url(#paint0_linear_7_8572)"/>
<path d="M21.3759 249.189C21.3759 257.029 22.8886 264.644 25.8722 271.821C28.7542 278.754 32.8871 285.005 38.1563 290.402C40.7517 293.061 43.6105 295.485 46.6534 297.609C49.7227 299.75 53.0078 301.605 56.4176 303.122C63.4994 306.273 71.0451 307.971 78.845 308.169L78.883 308.17L78.9207 308.174C80.068 308.291 81.2387 308.35 82.4003 308.35C85.381 308.35 88.3382 307.964 91.1896 307.203L91.2265 307.193L91.2641 307.186C98.0035 305.929 104.419 303.521 110.333 300.029C116.124 296.61 121.257 292.258 125.589 287.096C129.954 281.896 133.359 276.046 135.71 269.71C138.143 263.153 139.376 256.248 139.376 249.189C139.376 244.564 138.84 239.958 137.781 235.501C136.752 231.169 135.223 226.949 133.239 222.957C131.289 219.036 128.893 215.323 126.117 211.919C123.357 208.536 120.216 205.453 116.783 202.757L116.4 202.457V201.97L116.4 63.0001C116.4 58.4096 115.502 53.957 113.729 49.766C112.017 45.7174 109.565 42.0811 106.442 38.9583C103.319 35.8355 99.683 33.3839 95.6344 31.6715C91.4434 29.8988 86.9907 29 82.4003 29C77.8098 29 73.3572 29.8988 69.1661 31.6715C65.1175 33.3839 61.4813 35.8355 58.3585 38.9583C55.2357 42.0811 52.784 45.7174 51.0716 49.766C49.299 53.957 48.4002 58.4096 48.4002 63.0001L48.4002 199.055V199.593L47.9505 199.89C39.9469 205.164 33.2759 212.384 28.6584 220.769C26.3112 225.031 24.5004 229.575 23.2765 234.275C22.0154 239.117 21.3759 244.135 21.3759 249.189ZM20.3759 249.189C20.3759 228.231 31.1188 209.785 47.4002 199.055L47.4002 63.0001C47.4002 43.6699 63.0701 28 82.4003 28C101.73 28 117.4 43.6699 117.4 63.0001L117.4 201.97C131.389 212.955 140.376 230.023 140.376 249.189C140.376 278.543 119.296 302.975 91.4474 308.169C88.5613 308.94 85.5292 309.35 82.4003 309.35C81.191 309.35 79.9974 309.289 78.8196 309.169C46.401 308.344 20.3759 281.806 20.3759 249.189Z" fill="white" fill-opacity="0.5"/>
</g>
<path d="M81.6382 250.559C107.043 250.559 127.638 225.154 127.638 250.559C127.638 262.759 122.792 274.459 114.165 283.086C105.538 291.713 93.8381 296.559 81.6382 296.559C69.4382 296.559 57.7379 291.713 49.1113 283.086C40.4846 274.459 35.6382 262.759 35.6382 250.559C35.6382 225.154 56.2332 250.559 81.6382 250.559Z" fill="white"/>
</g>
<defs>
<filter id="filter0_f_7_8572" x="16.3755" y="24" width="128.002" height="289.351" filterUnits="userSpaceOnUse" color-interpolation-filters="sRGB">
<feFlood flood-opacity="0" result="BackgroundImageFix"/>
<feBlend mode="normal" in="SourceGraphic" in2="BackgroundImageFix" result="shape"/>
<feGaussianBlur stdDeviation="2" result="effect1_foregroundBlur_7_8572"/>
</filter>
<filter id="filter1_d_7_8572" x="0.375488" y="0" width="180.002" height="341.351" filterUnits="userSpaceOnUse" color-interpolation-filters="sRGB">
<feFlood flood-opacity="0" result="BackgroundImageFix"/>
<feColorMatrix in="SourceAlpha" type="matrix" values="0 0 0 0 0 0 0 0 0 0 0 0 0 0 0 0 0 0 127 0" result="hardAlpha"/>
<feOffset dx="10" dy="2"/>
<feGaussianBlur stdDeviation="15"/>
<feColorMatrix type="matrix" values="0 0 0 0 0.501961 0 0 0 0 0.501961 0 0 0 0 0.501961 0 0 0 0.302 0"/>
<feBlend mode="normal" in2="BackgroundImageFix" result="effect1_dropShadow_7_8572"/>
<feBlend mode="normal" in="SourceGraphic" in2="effect1_dropShadow_7_8572" result="shape"/>
</filter>
<linearGradient id="paint0_linear_7_8572" x1="125.257" y1="141.947" x2="7.20765" y2="169.913" gradientUnits="userSpaceOnUse">
<stop stop-color="white" stop-opacity="0.596"/>
<stop offset="1" stop-color="#F7F7F7" stop-opacity="0.204"/>
</linearGradient>
</defs>
</svg>
